<svg xmlns="http://www.w3.org/2000/svg" viewBox="0 0 500 500"><g id="freepik--background-complete--inject-77"><rect x="339.44" y="63.74" width="49.98" height="16.81" style="fill:#e6e6e6"></rect><rect x="328.18" y="80.54" width="49.98" height="16.81" style="fill:#f0f0f0"></rect><rect x="338.64" y="333.7" width="49.98" height="16.81" style="fill:#e6e6e6"></rect><rect x="327.38" y="350.51" width="49.98" height="16.81" style="fill:#f0f0f0"></rect><rect x="180.53" y="54.68" width="49.98" height="16.81" style="fill:#f0f0f0"></rect><rect x="416.73" y="208.13" width="49.98" height="16.81" style="fill:#f0f0f0"></rect><rect x="41.63" y="149.23" width="49.98" height="16.81" style="fill:#f0f0f0"></rect><rect x="173.85" y="352.08" width="49.98" height="16.81" style="fill:#f0f0f0"></rect><path d="M443.92,317.78H263.17a5.86,5.86,0,0,1-5.86-5.86V48.65a5.87,5.87,0,0,1,5.86-5.86H443.92a5.87,5.87,0,0,1,5.86,5.86V311.92A5.86,5.86,0,0,1,443.92,317.78ZM263.17,43a5.62,5.62,0,0,0-5.61,5.61V311.92a5.61,5.61,0,0,0,5.61,5.61H443.92a5.61,5.61,0,0,0,5.61-5.61V48.65A5.61,5.61,0,0,0,443.92,43Z" style="fill:#e0e0e0"></path><path d="M235.49,317.78H54.75a5.86,5.86,0,0,1-5.87-5.86V48.65a5.87,5.87,0,0,1,5.87-5.86H235.49a5.86,5.86,0,0,1,5.86,5.86V311.92A5.86,5.86,0,0,1,235.49,317.78ZM54.75,43a5.62,5.62,0,0,0-5.62,5.61V311.92a5.62,5.62,0,0,0,5.62,5.61H235.49a5.61,5.61,0,0,0,5.61-5.61V48.65A5.61,5.61,0,0,0,235.49,43Z" style="fill:#e0e0e0"></path><rect y="378.85" width="500" height="0.25" style="fill:#e0e0e0"></rect><rect x="51.67" y="393.12" width="16.06" height="0.25" style="fill:#e0e0e0"></rect><rect x="170.35" y="390.41" width="53.53" height="0.25" style="fill:#e0e0e0"></rect><rect x="68.73" y="402.41" width="36.25" height="0.25" style="fill:#e0e0e0"></rect><rect x="378.35" y="390.28" width="43.19" height="0.25" style="fill:#e0e0e0"></rect><rect x="430.45" y="390.28" width="6.33" height="0.25" style="fill:#e0e0e0"></rect><rect x="316.21" y="396.51" width="53.89" height="0.25" style="fill:#e0e0e0"></rect></g><g id="freepik--Shadow--inject-77"><path d="M458.88,448.39c0,3.39-93.52,6.14-208.88,6.14s-208.88-2.75-208.88-6.14,93.52-6.13,208.88-6.13S458.88,445,458.88,448.39Z" style="fill:#f5f5f5"></path></g><g id="freepik--Plant--inject-77"><path d="M290.2,422.06c0-.39-1.33-39.05-7.62-45.17-6.11-5.94-13.13-.22-13.43,0l-.63-.76c.08-.07,8-6.53,14.75,0,6.57,6.39,7.86,44.23,7.91,45.84Z" style="fill:#263238"></path><path d="M290.74,429.66c-.05-.46-4.3-46.42,12.48-65.68l.74.65c-16.5,18.94-12.29,64.47-12.25,64.93Z" style="fill:#263238"></path><path d="M290.11,424.8l-1-.07c0-.52,3.29-52.24-9-63.56l.66-.73C293.43,372.08,290.26,422.65,290.11,424.8Z" style="fill:#263238"></path><path d="M291.72,424.77h-1c0-1.42.41-34.94,9.93-40.39a6.73,6.73,0,0,1,6.16-.6c5.75,2.38,8.61,12.62,8.72,13.06l-1,.26c0-.1-2.84-10.22-8.15-12.41a5.81,5.81,0,0,0-5.29.54C292.11,390.4,291.72,424.42,291.72,424.77Z" style="fill:#263238"></path><path d="M288,424.79l-1-.05c0-.27,1.43-26.49-5.64-35.72-1.72-2.24-3.58-3.31-5.54-3.17-4.64.32-8.53,7.11-8.57,7.18l-.85-.49c.17-.3,4.18-7.31,9.35-7.67,2.31-.17,4.46,1,6.39,3.55C289.47,398,288.07,423.7,288,424.79Z" style="fill:#263238"></path><path d="M289.56,428.36c-.19-2.55-4.62-62.41,3.18-73l.79.59c-7.59,10.26-3,71.67-3,72.29Z" style="fill:#263238"></path><path d="M310.35,387.07s-5,1.84-3.29,5.8c4.76,11.15,16.11,12.34,16.11,12.34s5.33-8.43,1-15C318.11,381.21,310.48,384.16,310.35,387.07Z" style="fill:#A0A0A0"></path><path d="M288.6,382.08s5-.2,5.26,4.09-10.79,16.17-10.79,16.17-7.9-2.85-6.21-13.57S287.36,379.44,288.6,382.08Z" style="fill:#A0A0A0"></path><path d="M291,357.06a3.83,3.83,0,0,1-2.88-2.14c-2.34-5.62,5.72-11.67,16.51-8.47,0,0,.28,9.49-5.52,13.23S291,357.06,291,357.06Z" style="fill:#A0A0A0"></path><path d="M272.53,386.49s1.74-2.38-.89-2.61-14,4.86-11,16.51c0,0,14.61-4.77,15.11-9.65S272.53,386.49,272.53,386.49Z" style="fill:#A0A0A0"></path><path d="M303.67,361.23a5.21,5.21,0,0,1,3.13-3.07c2.48-.9,11.67-.33,11.8,11.69,0,0-14.14,2.35-15.89-2.23S303.67,361.23,303.67,361.23Z" style="fill:#A0A0A0"></path><path d="M296,371.22a2.07,2.07,0,0,1,2.77-.77,8.63,8.63,0,0,1,2.06,13.05s-9.49-5.71-8.71-9.71C292.88,370.1,296,371.22,296,371.22Z" style="fill:#A0A0A0"></path><path d="M272.79,374.12s1.37-1.79-.63-2-11,2.18-8.91,11.16c0,0,11-.82,11.43-4.55S272.79,374.12,272.79,374.12Z" style="fill:#A0A0A0"></path><polygon points="304.12 448.79 277.34 448.79 274.45 421.07 307.01 421.07 304.12 448.79" style="fill:#263238"></polygon><rect x="269.95" y="417.27" width="41.57" height="7.59" style="fill:#263238"></rect><path d="M282.09,398.63a.26.26,0,0,1-.25-.21c-.78-5.6,1.86-12.24,6.59-16.52a.25.25,0,0,1,.34.37c-4.61,4.17-7.2,10.64-6.43,16.08a.25.25,0,0,1-.21.28Z" style="opacity:0.30000000000000004"></path><path d="M300.51,380.12a.26.26,0,0,1-.25-.2,16.07,16.07,0,0,0-4.39-8.19.26.26,0,0,1,0-.36.27.27,0,0,1,.36,0,16.62,16.62,0,0,1,4.53,8.45.24.24,0,0,1-.19.29Z" style="opacity:0.30000000000000004"></path><path d="M321.29,398a.24.24,0,0,1-.23-.14,23.37,23.37,0,0,0-10.81-10.58.25.25,0,1,1,.2-.45,23.87,23.87,0,0,1,11.06,10.81.26.26,0,0,1-.11.34Z" style="opacity:0.30000000000000004"></path><path d="M316,366.94a.25.25,0,0,1-.22-.12,11.17,11.17,0,0,0-5.43-4.44c-2.36-.91-4.35-1.55-6.57-.91a.25.25,0,0,1-.31-.17.26.26,0,0,1,.17-.31c2.37-.68,4.44,0,6.89.92a11.68,11.68,0,0,1,5.68,4.65.25.25,0,0,1-.08.34A.22.22,0,0,1,316,366.94Z" style="opacity:0.30000000000000004"></path><path d="M283.84,363.25s3.32.4,3.51-1.63-11-9.94-20.12-3.4c0,0,2.82,9.06,9.52,10.71S283.84,363.25,283.84,363.25Z" style="fill:#A0A0A0"></path><path d="M283.74,363.67a.26.26,0,0,1-.2-.1c-3.33-4.48-11.78-6.13-14.68-5.07a.25.25,0,1,1-.17-.47c3-1.08,11.67.43,15.25,5.24a.25.25,0,0,1-.05.35A.3.3,0,0,1,283.74,363.67Z" style="opacity:0.30000000000000004"></path><path d="M265.43,380a.2.2,0,0,1-.13,0,.25.25,0,0,1-.09-.34c1.89-3.1,5.57-4.83,7.6-5.58a.25.25,0,0,1,.32.15.26.26,0,0,1-.15.32c-2,.73-5.53,2.4-7.34,5.37A.25.25,0,0,1,265.43,380Z" style="opacity:0.30000000000000004"></path><path d="M262.21,396.21a.25.25,0,0,1-.12,0,.25.25,0,0,1-.1-.34,21.6,21.6,0,0,1,10.52-9.73.27.27,0,0,1,.33.14.26.26,0,0,1-.14.33,21,21,0,0,0-10.27,9.49A.23.23,0,0,1,262.21,396.21Z" style="opacity:0.30000000000000004"></path><path d="M291.45,357.08a.18.18,0,0,1-.1,0,.24.24,0,0,1-.12-.33,15.7,15.7,0,0,1,9.33-8.18.25.25,0,0,1,.15.47,15.18,15.18,0,0,0-9,7.92A.24.24,0,0,1,291.45,357.08Z" style="opacity:0.30000000000000004"></path><polygon points="274.85 424.87 275.37 429.84 306.1 429.84 306.62 424.86 274.85 424.87" style="opacity:0.30000000000000004"></polygon></g><g id="freepik--Panels--inject-77"><rect x="141.79" y="402.96" width="72.62" height="47.34" rx="3.02" style="fill:#A0A0A0"></rect><rect x="141.79" y="402.96" width="72.62" height="47.34" rx="3.02" style="fill:#fff;opacity:0.5"></rect><rect x="157.09" y="410.47" width="42.89" height="2.73" style="fill:#A0A0A0"></rect><path d="M153.53,411.83a1.88,1.88,0,1,1-1.87-1.87A1.88,1.88,0,0,1,153.53,411.83Z" style="fill:#A0A0A0"></path><rect x="151.85" y="419.54" width="23.8" height="23.8" style="fill:#A0A0A0"></rect><rect x="151.85" y="419.54" width="23.8" height="23.8" style="fill:#fff;opacity:0.4"></rect><rect x="153.21" y="420.91" width="21.07" height="21.07" style="fill:#A0A0A0"></rect><rect x="153.21" y="420.91" width="21.07" height="21.07" style="fill:#fff;opacity:0.7000000000000001"></rect><polygon points="153.21 441.98 160.37 432.46 165.1 435.7 170.82 429.38 174.28 432.62 174.28 441.98 153.21 441.98" style="fill:#A0A0A0"></polygon><circle cx="163.75" cy="425.98" r="2.61" style="fill:#A0A0A0"></circle><rect x="180.71" y="428.72" width="27.45" height="2.73" style="fill:#263238"></rect><rect x="180.71" y="436.11" width="11.98" height="2.73" style="fill:#263238"></rect><rect x="180.71" y="421.32" width="27.45" height="2.73" style="fill:#263238"></rect><rect x="158.99" y="394.03" width="86.32" height="56.27" rx="3.02" style="fill:#A0A0A0"></rect><rect x="158.99" y="394.03" width="86.32" height="56.27" rx="3.02" style="fill:#fff;opacity:0.7000000000000001"></rect><rect x="177.18" y="402.96" width="50.98" height="3.24" style="fill:#A0A0A0"></rect><circle cx="170.72" cy="404.58" r="2.23" style="fill:#A0A0A0"></circle><rect x="170.95" y="413.74" width="28.29" height="28.29" style="fill:#A0A0A0"></rect><rect x="170.95" y="413.74" width="28.29" height="28.29" style="fill:#fff;opacity:0.4"></rect><rect x="172.57" y="415.36" width="25.04" height="25.04" style="fill:#A0A0A0"></rect><rect x="172.57" y="415.36" width="25.04" height="25.04" style="fill:#fff;opacity:0.7000000000000001"></rect><polygon points="172.57 440.41 181.07 429.09 186.71 432.95 193.5 425.43 197.61 429.28 197.61 440.41 172.57 440.41" style="fill:#A0A0A0"></polygon><path d="M188.19,421.39a3.1,3.1,0,1,1-3.1-3.11A3.1,3.1,0,0,1,188.19,421.39Z" style="fill:#A0A0A0"></path><rect x="205.25" y="424.64" width="32.63" height="3.24" style="fill:#263238"></rect><rect x="205.25" y="433.44" width="14.24" height="3.24" style="fill:#263238"></rect><rect x="205.25" y="415.85" width="32.63" height="3.24" style="fill:#263238"></rect></g><g id="freepik--kanban-method--inject-77"><rect x="93.75" y="95.29" width="316.02" height="243.81" rx="6.72" style="fill:#A0A0A0"></rect><rect x="93.75" y="95.29" width="316.02" height="243.81" rx="6.72" style="fill:#fff;opacity:0.6000000000000001"></rect><rect x="312.1" y="143.94" width="71.01" height="33.23" rx="3.02" style="fill:#fff"></rect><rect x="327.06" y="151.28" width="41.94" height="2.67" style="fill:#A0A0A0"></rect><rect x="319.91" y="159.71" width="54.31" height="2.67" style="fill:#263238"></rect><rect x="319.91" y="166.8" width="26.84" height="2.67" style="fill:#263238"></rect><path d="M323.58,152.62a1.84,1.84,0,1,1-1.84-1.84A1.83,1.83,0,0,1,323.58,152.62Z" style="fill:#A0A0A0"></path><path d="M98.54,94.6H405.89a3.88,3.88,0,0,1,3.88,3.88v11a0,0,0,0,1,0,0H93.68a0,0,0,0,1,0,0v-10A4.86,4.86,0,0,1,98.54,94.6Z" style="fill:#A0A0A0"></path><path d="M402.23,102a3.16,3.16,0,1,1-3.16-3.16A3.17,3.17,0,0,1,402.23,102Z" style="fill:#fff;opacity:0.30000000000000004"></path><path d="M393.24,102a3.16,3.16,0,1,1-3.16-3.16A3.16,3.16,0,0,1,393.24,102Z" style="fill:#fff;opacity:0.30000000000000004"></path><path d="M384.26,102a3.16,3.16,0,1,1-3.16-3.16A3.16,3.16,0,0,1,384.26,102Z" style="fill:#fff;opacity:0.30000000000000004"></path><path d="M167.85,88.47h-24.8a.5.5,0,0,1-.5-.5.51.51,0,0,1,.5-.5h24.8a.5.5,0,0,1,.5.5A.5.5,0,0,1,167.85,88.47Z" style="fill:#A0A0A0"></path><path d="M179.85,88.47h-5.17a.5.5,0,0,1-.5-.5.51.51,0,0,1,.5-.5h5.17a.5.5,0,0,1,.5.5A.5.5,0,0,1,179.85,88.47Z" style="fill:#A0A0A0"></path><path d="M197.6,329.86H108.27V127.55H197.6Zm-88.33-1H196.6V128.55H109.27Z" style="fill:#A0A0A0"></path><path d="M294.36,329.86H205V127.55h89.34Zm-88.34-1h87.34V128.55H206Z" style="fill:#A0A0A0"></path><path d="M391.11,329.86H301.77V127.55h89.34Zm-88.34-1h87.34V128.55H302.77Z" style="fill:#A0A0A0"></path><rect x="116.89" y="141.77" width="71.01" height="33.23" rx="3.02" style="fill:#fff"></rect><rect x="131.85" y="149.12" width="41.94" height="2.67" style="fill:#A0A0A0"></rect><rect x="124.71" y="157.55" width="54.31" height="2.67" style="fill:#263238"></rect><rect x="124.71" y="164.64" width="26.84" height="2.67" style="fill:#263238"></rect><path d="M128.37,150.46a1.83,1.83,0,1,1-1.83-1.84A1.83,1.83,0,0,1,128.37,150.46Z" style="fill:#A0A0A0"></path><rect x="116.89" y="267.15" width="71.01" height="33.23" rx="3.02" style="fill:#fff"></rect><rect x="131.85" y="274.5" width="41.94" height="2.67" style="fill:#A0A0A0"></rect><rect x="124.71" y="282.92" width="54.31" height="2.67" style="fill:#263238"></rect><rect x="124.71" y="290.01" width="26.84" height="2.67" style="fill:#263238"></rect><path d="M128.37,275.83a1.83,1.83,0,1,1-1.83-1.83A1.83,1.83,0,0,1,128.37,275.83Z" style="fill:#A0A0A0"></path><rect x="214.18" y="200.54" width="71.01" height="46.29" rx="3.02" style="fill:#fff"></rect><rect x="229.14" y="207.89" width="41.94" height="2.67" style="fill:#A0A0A0"></rect><path d="M225.66,209.22a1.84,1.84,0,1,1-1.83-1.83A1.83,1.83,0,0,1,225.66,209.22Z" style="fill:#A0A0A0"></path><rect x="214.18" y="146.15" width="71.01" height="46.29" rx="3.02" style="fill:#fff"></rect><rect x="229.14" y="153.5" width="41.94" height="2.67" style="fill:#A0A0A0"></rect><path d="M225.66,154.83a1.84,1.84,0,1,1-1.83-1.83A1.83,1.83,0,0,1,225.66,154.83Z" style="fill:#A0A0A0"></path><rect x="224.01" y="162.37" width="23.27" height="23.27" style="fill:#A0A0A0"></rect><rect x="224.01" y="162.37" width="23.27" height="23.27" style="fill:#fff;opacity:0.4"></rect><rect x="225.34" y="163.71" width="20.6" height="20.6" style="fill:#A0A0A0"></rect><rect x="225.34" y="163.71" width="20.6" height="20.6" style="fill:#fff;opacity:0.7000000000000001"></rect><polygon points="225.34 184.31 232.34 175 236.98 178.17 242.56 171.99 245.95 175.16 245.95 184.31 225.34 184.31" style="fill:#A0A0A0"></polygon><path d="M238.2,168.66a2.56,2.56,0,1,1-2.55-2.55A2.56,2.56,0,0,1,238.2,168.66Z" style="fill:#A0A0A0"></path><rect x="252.23" y="171.34" width="26.84" height="2.67" style="fill:#263238"></rect><rect x="252.23" y="178.58" width="11.71" height="2.67" style="fill:#263238"></rect><rect x="252.23" y="164.11" width="26.84" height="2.67" style="fill:#263238"></rect><path d="M247.28,227.79l4.54-12.47a13.22,13.22,0,0,1,7.62,7.17Z" style="fill:#A0A0A0"></path><path d="M247.28,227.79l4.54-12.47a13.22,13.22,0,0,1,7.62,7.17Z" style="fill:#fff;opacity:0.6000000000000001"></path><path d="M247.28,227.79l3.87,12.69a13.27,13.27,0,1,1,.61-25.18Z" style="fill:#A0A0A0"></path><path d="M247.28,227.79l12.19-5.24a13.27,13.27,0,0,1-8.27,17.92Z" style="fill:#A0A0A0"></path><path d="M247.28,227.79l12.19-5.24a13.27,13.27,0,0,1-8.27,17.92Z" style="opacity:0.30000000000000004"></path><rect x="314.73" y="187.86" width="18.51" height="18.51" style="fill:#A0A0A0"></rect><rect x="218.15" y="257.01" width="18.51" height="18.51" style="fill:#A0A0A0"></rect><rect x="240.56" y="257.01" width="18.51" height="18.51" style="fill:#A0A0A0"></rect><rect x="263.91" y="257.01" width="18.51" height="18.51" style="fill:#263238"></rect><rect x="218.26" y="280.89" width="18.51" height="18.51" style="fill:#fff"></rect><rect x="338.77" y="187.86" width="18.51" height="18.51" style="fill:#fff"></rect></g><g id="freepik--Clock--inject-77"><path d="M126.18,100.07a34.55,34.55,0,1,1-20.86-44.18A34.55,34.55,0,0,1,126.18,100.07Z" style="fill:#A0A0A0"></path><path d="M126.18,100.07a34.55,34.55,0,1,1-20.86-44.18A34.55,34.55,0,0,1,126.18,100.07Z" style="opacity:0.30000000000000004"></path><circle cx="91.21" cy="87.53" r="34.55" transform="translate(-35.18 90.13) rotate(-45)" style="fill:#A0A0A0"></circle><circle cx="91.21" cy="87.53" r="28.7" transform="translate(-29.84 51.08) rotate(-27.06)" style="fill:#fff"></circle><path d="M87.81,111.89l.93-6.75.4,0L88.37,112Zm-10.46-4a5,5,0,0,1-.47-.33l4-5.52.33.23Zm22.16,2.84-2.31-6.41.4-.15,2.43,6.37Zm-30-11.6-.26-.5,6.09-3.06.19.36Zm39.82,5.09-5-4.6.28-.31,5.19,4.41-.11.14ZM66.62,87.68v-.57l6.82.11c0,.14,0,.27,0,.41ZM108.4,92l.09-.37,6.63,1.57c0,.19-.09.38-.14.57Zm-33-12.66-6-3.15.25-.48,6,3.25Zm33.12,4.17-.1-.4L115,81.49c0,.18.09.36.13.55ZM81,73l-3.91-5.58.45-.32,3.81,5.66Zm23.68,3-.27-.3,5.06-4.56.38.43ZM89,69.91l-.86-6.76.58-.07.67,6.78ZM97.78,71l-.38-.15,2.37-6.39.53.21Z"></path><path d="M91.36,89.2a.57.57,0,0,1-.28-.08L79.74,81.55a.5.5,0,0,1-.14-.69.51.51,0,0,1,.7-.14l10.81,7.21,5-14a.5.5,0,1,1,.94.34l-5.2,14.56a.53.53,0,0,1-.31.31Z"></path><path d="M93.39,88.3a2.14,2.14,0,1,1-1.51-2.63A2.14,2.14,0,0,1,93.39,88.3Z"></path><path d="M65.87,79.38a28.69,28.69,0,0,1,46.31-11.56,28.7,28.7,0,1,0-40.32,40.77A28.71,28.71,0,0,1,65.87,79.38Z" style="opacity:0.30000000000000004"></path></g><g id="freepik--speech-bubble--inject-77"><path d="M438.67,129.79H415.28a10.86,10.86,0,0,0-10.85,10.86v13.1a10.86,10.86,0,0,0,10.85,10.86h5.32l.85,6,6.45-6h10.77a10.86,10.86,0,0,0,10.85-10.86v-13.1A10.86,10.86,0,0,0,438.67,129.79Z" style="fill:#A0A0A0"></path><path d="M432.5,147.24a2.79,2.79,0,1,0,2.79-2.79A2.79,2.79,0,0,0,432.5,147.24Z" style="fill:#fff"></path><path d="M423,147.24a2.79,2.79,0,1,0,2.79-2.79A2.79,2.79,0,0,0,423,147.24Z" style="fill:#fff"></path><path d="M413.2,147.24a2.8,2.8,0,1,0,2.8-2.79A2.8,2.8,0,0,0,413.2,147.24Z" style="fill:#fff"></path><path d="M439.27,127.67H424.44a.38.38,0,0,0,0,.75h14.83a.38.38,0,0,0,0-.75Z" style="fill:#A0A0A0"></path><path d="M422.58,127.67h-1.24a.38.38,0,0,0-.38.38.38.38,0,0,0,.38.37h1.24a.38.38,0,0,0,0-.75Z" style="fill:#A0A0A0"></path></g><g id="freepik--character-2--inject-77"><g id="freepik--freepik--character-2--inject-2--inject-77"><path d="M426.39,269.47s-.51,8.84-4.82,24.32a245.78,245.78,0,0,1-9.84,28.12c-2.15,5.18-4.62,10.68-7.45,16.46-1.28,2.63-2.65,5.31-4.08,8.05-1.65,46.85-27.94,94.48-27.94,94.48-1.46.75-6.55-.07-6.51-1.55,3.89-6.18,11.55-66.22,16.49-94.69.31-3.88.75-8,1.3-12.31,1.44-11.5,3.58-24,5.69-35,3.26-17.32,6.37-30.9,6.37-30.9l8.66.84Z" style="fill:#e1bfb9"></path><path d="M436.73,334.33h0q-1.05,7.56-2.7,16.18c9.39,31.33-9.93,92.49-9.93,92.49-3.26.65-6.15.23-7.62-.87,3.64-18.43,1-66.34-1.81-95-.25-2.6-.57-5.45-.91-8.5-.58-5.17-1.28-10.86-2-16.75-1.25-9.84-2.65-20.2-3.91-29.39-1.55-11.1-2.89-20.49-3.59-25.21-.28-2.07-.45-3.24-.45-3.24L430.9,267s6.9,7.73,8,31.87A197.53,197.53,0,0,1,436.73,334.33Z" style="fill:#e1bfb9"></path><path d="M424.78,451h-1.52l-.42-1.86-5,2.27H405.16s-2-2,4-3.63a4.49,4.49,0,0,0,.86-.33c3.21-1.51,7.79-6.61,7.79-6.61h7a10,10,0,0,1,.57,1C426.13,443.35,427.41,446.61,424.78,451Z" style="fill:#263238"></path><path d="M425.37,441.83h0c-.92-1-5.1,3.47-8.16,5-2.74,1.35-5.81,2-7.16.58,3.21-1.52,8.27-8.11,8.27-8.11h5.59S425,441.17,425.37,441.83Z" style="fill:#e1bfb9"></path><path d="M372,451h-1.48l-.42-1.86-5,2.27H352.37s-2-2,4-3.63a4.4,4.4,0,0,0,.85-.33c3.22-1.51,7.8-6.61,7.8-6.61H372a6.7,6.7,0,0,1,.57,1C373.33,443.35,374.64,446.61,372,451Z" style="fill:#263238"></path><path d="M372.56,441.83h0c-.91-1-5.08,3.47-8.15,5-2.73,1.35-5.8,2-7.17.58,3.22-1.52,9-8.6,9-8.6l4.92.49S372.24,441.17,372.56,441.83Z" style="fill:#e1bfb9"></path><path d="M395.08,264.07h36l1,4.64s13.23,18.3,6.52,64c0,0-29,3.34-56.25-2.51,0,0,6.12-46.89,12.52-62.2Z" style="fill:#263238"></path></g><path d="M382,192.94a44.5,44.5,0,0,1,1.92,10.68s19.6-1.9,23.57-7.07,1.71-29.36-9-29A18.6,18.6,0,0,0,382,192.94Z" style="fill:#263238"></path><path d="M386.75,172.46a13.48,13.48,0,0,0-4.13,12.43c1.43,4.46,3.61,7.4,5.65,11.61l7.24-28.93C392.78,168.65,391.4,168.3,386.75,172.46Z" style="fill:#263238"></path><path d="M401.94,167.64c9.85,1.68,14.43,6.91,15.09,13.68s-6,15.51-7.26,16.05l-3.95,1.45s4.36-10.08,2.55-12.77-3.12-2.73-3.12-2.73Z" style="fill:#263238"></path><path d="M392.56,169c4.34-3.07,9.47-1.31,12.51,0a13.87,13.87,0,0,1,6.65,9.21c.66,3.63,1.46,8.05-.4,10.35a6,6,0,0,1-4.25,2.27l-21-13.33A21.38,21.38,0,0,1,392.56,169Z" style="fill:#263238"></path><path d="M401,218.31c1.65,1.17,2.82.46,4.53-.63,10.27-6,6.05-10.67,6.05-10.67-2.53-2.06-3.15-5-3.2-9.57a2.57,2.57,0,0,0-.06-.4,2.84,2.84,0,0,0-.85-1.55,3,3,0,0,0-4.23,0h0l-4.66,2.3h0V198c.43,2.44.84,4.32,1.1,5.81a3.31,3.31,0,0,0,.08.55h0a3.31,3.31,0,0,0,.08.55c.25,2.06-2.65,5.69-3.93,6.66C395.18,212.2,395.47,214.35,401,218.31Z" style="fill:#e1bfb9"></path><path d="M409.05,179.76c1.35,8.44,2.1,12-1.07,17.28-4.77,8-15.18,8-19,.13-3.39-7.07-5.05-19.67,2.18-25S407.7,171.3,409.05,179.76Z" style="fill:#e1bfb9"></path><path d="M414.09,186.28a6.92,6.92,0,0,1-3.19,4.24c-2,1.15-4.15-2.08-4-4.49a4.58,4.58,0,0,1,4.2-4.22C413.34,181.67,414.68,184,414.09,186.28Z" style="fill:#e1bfb9"></path><path d="M409.32,187.35a.26.26,0,0,1-.25-.2,3.39,3.39,0,0,1,2.64-4,.26.26,0,0,1,.3.2.25.25,0,0,1-.2.29,2.89,2.89,0,0,0-2.25,3.39.25.25,0,0,1-.19.3Z" style="opacity:0.2"></path><path d="M398.75,185.38c.2.89-.08,1.74-.63,1.9s-1.14-.44-1.34-1.33.08-1.74.63-1.9S398.55,184.48,398.75,185.38Z" style="fill:#263238"></path><path d="M390.54,187.57c.19.87-.1,1.69-.64,1.85s-1.13-.41-1.32-1.27.09-1.7.64-1.85S390.35,186.71,390.54,187.57Z" style="fill:#263238"></path><path d="M399.65,181.84a.4.4,0,0,1-.32,0,3.13,3.13,0,0,0-2.95,0,.39.39,0,0,1-.55-.14.47.47,0,0,1,.17-.6,3.86,3.86,0,0,1,3.72,0,.43.43,0,0,1,.17.57A.46.46,0,0,1,399.65,181.84Z" style="fill:#263238"></path><path d="M386.65,184.15a.34.34,0,0,1-.24-.13.46.46,0,0,1,.07-.59,3.54,3.54,0,0,1,3.3-1.14.42.42,0,0,1-.23.81,2.89,2.89,0,0,0-2.62.93A.39.39,0,0,1,386.65,184.15Z" style="fill:#263238"></path><path d="M392.66,186.56a29.26,29.26,0,0,1-1.4,5.8.67.67,0,0,0,.57.9,4.3,4.3,0,0,0,2.24-.56Z" style="fill:#cd877b"></path><path d="M397.73,184l-2,.07S397.13,185.21,397.73,184Z" style="fill:#263238"></path><path d="M389.42,186.26l-2,.07S388.82,187.47,389.42,186.26Z" style="fill:#263238"></path><path d="M395,194.91A19.54,19.54,0,0,1,397.1,197c.15-.09.3-.17.44-.27,2-1.24,2.48-2.47,2.44-3.46a3,3,0,0,0-.42-1.36,2.87,2.87,0,0,0-.49-.65,10.78,10.78,0,0,1-3.37,3.24C395.3,194.75,395,194.91,395,194.91Z" style="fill:#263238"></path><path d="M395.7,194.47l.63.6c1.85-1.18,3-2.26,3.23-3.19a2.87,2.87,0,0,0-.49-.65A10.78,10.78,0,0,1,395.7,194.47Z" style="fill:#fff"></path><path d="M397.54,196.7c2-1.24,2.48-2.47,2.44-3.46a7.48,7.48,0,0,0-1.92,1.82A2.79,2.79,0,0,0,397.54,196.7Z" style="fill:#de5753"></path><path d="M406.51,182.34s-5.81-4.62-6.81-9.29c0,0-17.9-.68-13.61,13.87,0,0-6-12.16,7.62-16.81s19.91,13.17,14.71,20.72C408.38,190.77,410.11,185.24,406.51,182.34Z" style="fill:#263238"></path><path d="M387.65,173.11a12.26,12.26,0,0,0-2.32,7.26c.33,1.83,3.07,2.7,3.07,2.7l2.31-4.55.64,3.51a11.29,11.29,0,0,0,8.3-8.76L396,168.81S389.05,171.37,387.65,173.11Z" style="fill:#263238"></path><path d="M430.1,249.91l2.56,19.15-39.75-2.63c.25,5.76,3.85-14,3.42-17-1.19-3.68-7.26-9.25-8.87-13.7-1.72-6.19,1.83-23.2,3-23.74,1.41-.65,3.16-.59,4.23-1.07,4.19-1,13.73-4.39,18-4.92.82-.08,1.64-.23,2.46-.32,0,0,16.15-.78,16.86,5.79A144.7,144.7,0,0,0,430.1,249.91Z" style="fill:#A0A0A0"></path><polygon points="431.15 245.47 422.65 224.31 425.33 243.44 418.11 248.7 431.15 245.47" style="isolation:isolate;opacity:0.2"></polygon><path d="M412.91,262.35c.52-.07,4.07-4.57,4.07-4.57h14.17l-.58-4.37c.4-.31-16.5.44-16.5.44l-1.16,5.31Z" style="isolation:isolate;opacity:0.2"></path><path d="M425.07,207.23c.69.08,3.49-1.51,8.56,5s12.7,37.14,11,40.36-31.75,3.77-31.75,3.77v-7.79l16.88-3.83s-9.58-23.06-8.07-29S425.07,207.23,425.07,207.23Z" style="fill:#A0A0A0"></path><path d="M417.48,205.56a17.3,17.3,0,0,1-12.7,13.62c-2.29.55-4.85-.71-6.66-2.21a10,10,0,0,1-3.44-6C402.63,207.81,409.83,205,417.48,205.56Z" style="fill:#e1bfb9"></path><path d="M392.12,211.82s-3.18-.35-6,3.15c-4.16,5.2-19.71,20.78-19.71,20.78L344,225.17l-3.78,7.21s21.6,16.45,27.34,16.41c9.26-.06,22.65-13.6,22.65-13.6Z" style="fill:#A0A0A0"></path><rect x="339.16" y="222.72" width="73.74" height="48.07" rx="3.02" style="fill:#A0A0A0"></rect><rect x="339.16" y="222.72" width="73.74" height="48.07" rx="3.02" style="fill:#fff;opacity:0.9"></rect><rect x="354.7" y="230.35" width="43.55" height="2.77" style="fill:#A0A0A0"></rect><circle cx="349.18" cy="231.74" r="1.9" style="fill:#A0A0A0"></circle><rect x="349.37" y="239.57" width="24.16" height="24.16" style="fill:#A0A0A0"></rect><rect x="349.37" y="239.57" width="24.16" height="24.16" style="fill:#fff;opacity:0.4"></rect><rect x="350.76" y="240.95" width="21.39" height="21.39" style="fill:#A0A0A0"></rect><rect x="350.76" y="240.95" width="21.39" height="21.39" style="fill:#fff;opacity:0.7000000000000001"></rect><polygon points="350.75 262.35 358.02 252.68 362.83 255.97 368.63 249.55 372.15 252.84 372.15 262.35 350.75 262.35" style="fill:#A0A0A0"></polygon><path d="M364.1,246.1a2.65,2.65,0,1,1-2.65-2.65A2.65,2.65,0,0,1,364.1,246.1Z" style="fill:#A0A0A0"></path><rect x="378.68" y="248.88" width="27.88" height="2.77" style="fill:#263238"></rect><rect x="378.68" y="256.39" width="12.16" height="2.77" style="fill:#263238"></rect><rect x="378.68" y="241.37" width="27.88" height="2.77" style="fill:#263238"></rect><path d="M412.83,249.8s-6.89,1.75-7.53,3.12,1.52,1.26,1.52,1.26-2.37.26-2.39,1.28c0,1.22,2.22,1.1,2.22,1.1s-1.92.3-1.88,1.2,2.6,1,2.6,1-1.31.46-.93,1.08,5.81.82,7.41-.2,1.6-8,1.29-9.51-.45-2.34-2.36-4.65l.05,4.33Z" style="fill:#e1bfb9"></path><path d="M406.82,254.3h0l4.1-.65c.06,0,.09-.06.09-.13a.11.11,0,0,0-.12-.09l-4.1.65a.11.11,0,0,0-.08.13A.1.1,0,0,0,406.82,254.3Z" style="opacity:0.2"></path><path d="M406.78,256.67h0l4-.31a.12.12,0,0,0,.09-.12c0-.07,0-.1-.11-.11l-4,.31a.12.12,0,0,0-.09.13C406.68,256.63,406.72,256.68,406.78,256.67Z" style="opacity:0.2"></path><path d="M407.51,258.86l3-.15a.11.11,0,0,0,.1-.12.12.12,0,0,0-.11-.11l-3,.15a.1.1,0,0,0-.09.12A.11.11,0,0,0,407.51,258.86Z" style="opacity:0.2"></path><path d="M339.18,246.45s6.89,1.75,7.53,3.12-1.52,1.26-1.52,1.26,2.36.26,2.39,1.28c0,1.22-2.23,1.1-2.23,1.1s1.92.3,1.88,1.2-2.59,1-2.59,1,1.31.46.93,1.08-5.81.82-7.41-.2-1.61-8-1.29-9.51.45-2.34,2.36-4.65l-.05,4.33Z" style="fill:#e1bfb9"></path><path d="M345.18,251h0l-4.1-.65a.11.11,0,0,1-.08-.13.12.12,0,0,1,.11-.1l4.1.66a.11.11,0,0,1,.09.13A.12.12,0,0,1,345.18,251Z" style="opacity:0.2"></path><path d="M345.23,253.32h0l-4-.31a.12.12,0,0,1,0-.23l4,.31a.11.11,0,0,1,.09.13A.1.1,0,0,1,345.23,253.32Z" style="opacity:0.2"></path><path d="M344.49,255.51l-3-.15s-.09-.06-.09-.12a.11.11,0,0,1,.11-.11l3,.15a.12.12,0,0,1,0,.23Z" style="opacity:0.2"></path></g><g id="freepik--character-1--inject-77"><path d="M57.05,215.45s-6.39,22.62-2.3,26.56,18.38,1.32,17.65,1,3.65-27.51,3.94-26.52S57.05,215.45,57.05,215.45Z" style="fill:#cd877b"></path><rect x="94.78" y="184.63" width="71.01" height="68.98" rx="3.02" style="fill:#A0A0A0"></rect><rect x="94.78" y="184.63" width="71.01" height="68.98" rx="3.02" style="fill:#fff;opacity:0.9"></rect><rect x="109.75" y="191.98" width="41.94" height="2.67" style="fill:#A0A0A0"></rect><rect x="102.6" y="232.82" width="54.31" height="2.67" style="fill:#263238"></rect><rect x="102.6" y="239.91" width="26.84" height="2.67" style="fill:#263238"></rect><path d="M106.26,193.31a1.83,1.83,0,1,1-1.83-1.83A1.83,1.83,0,0,1,106.26,193.31Z" style="fill:#A0A0A0"></path><rect x="133.64" y="202.16" width="23.27" height="23.27" style="fill:#A0A0A0"></rect><rect x="133.64" y="202.16" width="23.27" height="23.27" style="fill:#fff;opacity:0.4"></rect><rect x="134.97" y="203.49" width="20.6" height="20.6" style="fill:#A0A0A0"></rect><rect x="134.97" y="203.49" width="20.6" height="20.6" style="fill:#fff;opacity:0.7000000000000001"></rect><polygon points="134.97 224.1 141.97 214.79 146.6 217.96 152.19 211.78 155.58 214.94 155.58 224.1 134.97 224.1" style="fill:#A0A0A0"></polygon><path d="M147.83,208.45a2.56,2.56,0,1,1-2.55-2.55A2.55,2.55,0,0,1,147.83,208.45Z" style="fill:#A0A0A0"></path><rect x="105.85" y="202.16" width="23.27" height="23.27" style="fill:#A0A0A0"></rect><rect x="105.85" y="202.16" width="23.27" height="23.27" style="fill:#fff;opacity:0.4"></rect><rect x="107.18" y="203.49" width="20.6" height="20.6" style="fill:#A0A0A0"></rect><rect x="107.18" y="203.49" width="20.6" height="20.6" style="fill:#fff;opacity:0.7000000000000001"></rect><polygon points="107.18 224.1 114.18 214.79 118.81 217.96 124.4 211.78 127.78 214.94 127.78 224.1 107.18 224.1" style="fill:#A0A0A0"></polygon><path d="M120,208.45a2.56,2.56,0,1,1-2.56-2.55A2.56,2.56,0,0,1,120,208.45Z" style="fill:#A0A0A0"></path><path d="M64.59,419.77V439.4l9.11.71,3.2-18.44C72.73,418.66,68.62,417.94,64.59,419.77Z" style="fill:#cd877b"></path><path d="M64.89,437.35c-.89,2.59-1,13.19-1,13.19l19.32,0c1.15-3.83-.63-6.45-2.88-6.79a6.3,6.3,0,0,1-2.94-2.17c0-.12-1.19-6-1.92-6.29,0,0-.5-.61-.93,0a10.29,10.29,0,0,0-.8,2.6C70.77,433.85,67.82,434.4,64.89,437.35Z" style="fill:#263238"></path><path d="M64.66,440.43a6.46,6.46,0,0,1,6.43.91c.33.25.65-.34.32-.59a7,7,0,0,0-6.92-1c-.38.15-.21.81.17.66Z" style="fill:#fff"></path><path d="M83.2,449h0l-19,0a.34.34,0,0,1,0-.68h0l19,0a.33.33,0,0,1,.32.34A.33.33,0,0,1,83.2,449Z" style="fill:#fff"></path><path d="M61.21,429.44l19.43,1c4.36-14.13,8.66-64.77,9.11-80,.53-18.17,7-63.76,1.28-73.25s-31.76-1.93-31.76-1.93,3.24,55.52,1.94,73.22C60.09,363.9,58.35,409,61.21,429.44Z" style="fill:#263238"></path><polygon points="82.73 425.36 81.47 431.85 60.42 431.17 59.65 424.93 82.73 425.36" style="fill:#A0A0A0"></polygon><path d="M103.92,417.21l0,22.15,8.77.73L117,419.35C113.46,416.51,109.37,415.13,103.92,417.21Z" style="fill:#cd877b"></path><path d="M103.9,437.4c-.9,2.59-1,13.19-1,13.19l22.2,0c1.15-3.83-1.25-6.1-3.5-6.45-1-.15-4.37-1.57-5.2-2.51,0-.12-1.18-6-1.91-6.29,0,0-.51-.62-.93,0a10.45,10.45,0,0,0-.8,2.61C109.78,433.9,106.82,434.44,103.9,437.4Z" style="fill:#263238"></path><path d="M103.66,440.47a6.45,6.45,0,0,1,6.43.91c.34.26.65-.34.32-.59a7,7,0,0,0-6.91-1c-.38.16-.22.82.16.66Z" style="fill:#fff"></path><path d="M125.14,449.06h0l-22,0a.33.33,0,0,1-.32-.34.34.34,0,0,1,.32-.35h0l22,0a.34.34,0,0,1,0,.68Z" style="fill:#fff"></path><path d="M100,429.44l19.25,1c2.35-15.64,11.77-72.58,11-83.48-.94-13.32-12.09-71-16.24-75.44s-34.51,7.08-34.51,7.08,12.47,49.59,22.31,71C103.86,354.13,98.43,410.43,100,429.44Z" style="fill:#263238"></path><polygon points="121.47 425.85 120.48 431.85 99.08 430.48 98.65 424.19 121.47 425.85" style="fill:#A0A0A0"></polygon><g style="opacity:0.30000000000000004"><path d="M86.87,311.83c-.37-.81-.74-1.62-1.08-2.45a86.84,86.84,0,0,1-4.31-13.67,42.66,42.66,0,0,1-9.35-2.08c-.39-.13-.22-.79.17-.66a42.23,42.23,0,0,0,14.89,2.28c.41,0,.4.67,0,.68a42.3,42.3,0,0,1-5-.16,87.52,87.52,0,0,0,4.31,13.58A127.94,127.94,0,0,0,92.84,322c.22.37-.33.72-.54.34-1.7-3-3.35-6.08-4.84-9.23-.14,3.75-.56,15.37-1,30.75-.81,26.55-7,69.71-8.77,81.36H77c1.71-11.46,8-54.79,8.78-81.38C86.35,325.65,86.84,312.73,86.87,311.83Z" style="fill:#fff"></path><path d="M63.85,348.08a95.17,95.17,0,0,1,16.79.49c.4,0,.4.73,0,.68a96.13,96.13,0,0,0-16.79-.49C63.45,348.78,63.45,348.1,63.85,348.08Z" style="fill:#fff"></path><path d="M126.8,348.14c-.44-8.34-10-43.72-10.12-44.07a.36.36,0,0,1,.21-.43.31.31,0,0,1,.39.24c.4,1.45,9.71,35.81,10.15,44.22.37,7.23-9.62,74.13-10.05,77a.31.31,0,0,1-.31.29h0a.35.35,0,0,1-.26-.4C116.87,424.27,127.17,355.3,126.8,348.14Z" style="fill:#fff"></path><path d="M121.35,300.4c-7.22-2.95-9.56-11.52-11.27-18.86a.31.31,0,1,1,.6-.18c1.66,7.06,3.86,15.53,10.84,18.39C121.89,299.9,121.73,300.56,121.35,300.4Z" style="fill:#fff"></path><path d="M105.19,348.73l14.07-1c.41,0,.41.66,0,.69l-14.07,1C104.78,349.45,104.78,348.76,105.19,348.73Z" style="fill:#fff"></path></g><path d="M102.46,155c0,.82.36,1.43.88,1.52s1-.6,1-1.43-.35-1.43-.86-1.52S102.56,154.18,102.46,155Z" style="fill:#263238"></path><path d="M102.79,154.86a28.58,28.58,0,0,0,1.94,7.65,4.68,4.68,0,0,1-3.92-.32Z" style="fill:#a24e3f"></path><path d="M101,152.35a.46.46,0,0,1-.3-.07.47.47,0,0,1,0-.67h0a4.72,4.72,0,0,1,4-1.75.46.46,0,0,1,.41.5h0a.49.49,0,0,1-.53.42h0a3.71,3.71,0,0,0-3.1,1.43A.46.46,0,0,1,101,152.35Z" style="fill:#263238"></path><path d="M102.81,165.8a11.83,11.83,0,0,1-.4,1.28,12.68,12.68,0,0,1-4.56,6,12.36,12.36,0,0,1-1.67,1,11.73,11.73,0,0,1-13.82-2.16c-4.62-4.59-4.5-9.89-5-18.86a12.3,12.3,0,0,1,.93-5.65,12.57,12.57,0,0,1,16.34-6.63h0C103.52,144.37,104.75,157.71,102.81,165.8Z" style="fill:#cd877b"></path><path d="M97.81,173.07a12.24,12.24,0,0,1-11.67,1.44,13.49,13.49,0,0,1,1.63-3A18.24,18.24,0,0,1,97.81,173.07Z" style="isolation:isolate;opacity:0.2"></path><path d="M79.44,184.7c4.5,4,15.52,2.54,15.52,2.54s6.87-1.85,5.42-4c-4-.66-6-2.52-6.82-4.9a11.48,11.48,0,0,1-.4-4.55,19.86,19.86,0,0,1,.34-2.54l-13.62-9.91C81.66,167.93,83.84,180,79.44,184.7Z" style="fill:#cd877b"></path><path d="M97.81,157.64l2,.72-1-4s2.88-4.32,0-8.07c0,0,8-2.37,3.46-6.48-1.67-1.53-3.75,0-9.24-2.34-3-1.28-12.28-1.38-12.75,2.34,0,0-6.71,0-7.43,11.23a22.27,22.27,0,0,0,7.1,17.75s8.11,1.88,12.08-1.31S97.81,157.64,97.81,157.64Z" style="fill:#263238"></path><path d="M92.63,158.27a5.8,5.8,0,0,0,3,4c1.86.77,3.09-1.8,2.81-4.49-.25-2.4-1.51-5.77-3.5-5.32S92,155.85,92.63,158.27Z" style="fill:#cd877b"></path><path d="M65.59,182.55s-3.16,1-4.74,1.54c-3.28,1.2-5.44,4.85-6.63,8.44-2.9,8.76-7.59,29.51-7.59,29.51l17,3.57,9.08-19.55Z" style="fill:#A0A0A0"></path><path d="M65.59,182.55s-4.55.84-7,2.82a14.91,14.91,0,0,0-4.42,7.16c-2.9,8.76-7.59,29.51-7.59,29.51l17,3.57,9.08-19.55Z" style="fill:#fff;opacity:0.5"></path><path d="M106.8,183.55c-5-.54-20.46-4-41.21-1l-4.85,76.72a203.39,203.39,0,0,1-2.47,21.82c21.09,9.05,46,6.46,60.15-1.15-.17.32-.63-8.05-1.35-20.32-1.28-21.61-3.36-55.31-6-74.81C110.94,184.32,107.3,183.61,106.8,183.55Z" style="fill:#A0A0A0"></path><g style="opacity:0.5"><path d="M106.8,183.55c-5-.54-20.46-4-41.21-1l-4.85,76.72a203.39,203.39,0,0,1-2.47,21.82c21.09,9.05,46,6.46,60.15-1.15-.17.32-.63-8.05-1.35-20.32-1.28-21.61-3.36-55.31-6-74.81C110.94,184.32,107.3,183.61,106.8,183.55Z" style="fill:#fff"></path></g><path d="M79.21,181.75A7.1,7.1,0,0,1,81.72,178l11.55.89,5.42,3.58Z" style="fill:#A0A0A0"></path><path d="M79.21,181.75a7.13,7.13,0,0,1,2.5-3.77l11.56.89,5.42,3.58Z" style="fill:#fff;opacity:0.5"></path><path d="M106.26,207.43c1.85,8.65,4.51,25.59,9.53,31.49l-1.19-17.14Z" style="isolation:isolate;opacity:0.2"></path><polygon points="62.56 225.37 63.01 203.22 58.36 224.32 62.56 225.37" style="isolation:isolate;opacity:0.2"></polygon><path d="M115.12,214.27c-.65.25,11.87,28.4,17,28.66s29-10.64,29-10.64l-5.37-6.4-18.08,1-9.22-19.63Z" style="fill:#cd877b"></path><path d="M108.83,184.52c-6.49,4.28-9.71,14,7.69,44L135.31,217c-3.8-7-7.83-12.11-12.3-22.27C114,181.75,108.83,184.52,108.83,184.52Z" style="fill:#A0A0A0"></path><path d="M108.83,184.52c-6.49,4.28-9.71,14,7.69,44L135.31,217c-3.8-7-7.83-12.11-12.3-22.27C114,181.75,108.83,184.52,108.83,184.52Z" style="fill:#fff;opacity:0.5"></path><path d="M169.52,225.7c0-1.65-.5-3.43-1.39-3.49s-5.61,0-5.61,0h0a1.76,1.76,0,0,0-2.58-1.57c-1.4.74-2.92,1.75-3.31,2.78A13.06,13.06,0,0,1,155.5,226l3.23,7.43s6,3.94,7.38,2.55a3.94,3.94,0,0,0,1.27-2.87s1.39-1.93,1.26-3.19S169.52,227.34,169.52,225.7Z" style="fill:#cd877b"></path></g></svg>
